<?xml version="1.0" encoding="utf-8"?>
<!-- Generator: Adobe Illustrator 16.0.3, SVG Export Plug-In . SVG Version: 6.00 Build 0)  -->
<!DOCTYPE svg PUBLIC "-//W3C//DTD SVG 1.1//EN" "http://www.w3.org/Graphics/SVG/1.1/DTD/svg11.dtd">
<svg version="1.1" id="Camada_1" xmlns="http://www.w3.org/2000/svg" xmlns:xlink="http://www.w3.org/1999/xlink" x="0px" y="0px"
	 width="164.383px" height="69.714px" viewBox="0 0 164.383 69.714" enable-background="new 0 0 164.383 69.714"
	 xml:space="preserve">
<path id="path24" fill="#FAC32B" d="M53.584,20.195c-6.956,0-12.595,5.64-12.595,12.595c0,6.956,5.639,12.594,12.595,12.594
	c6.955,0,12.595-5.641,12.595-12.594C66.085,25.834,60.445,20.195,53.584,20.195L53.584,20.195z"/>
<path id="path26" fill="#FAC32B" d="M39.11,21.604c0.658-1.222,1.691-3.759,1.691-5.733c-0.094-2.162-0.751-4.793-4.135-5.921
	c0,0-3.29-1.128-5.545-0.375c0,0,1.222-6.392-6.392-8.836c-3.854-1.222-6.485-0.94-10.057,0.94
	C11.006,3.558-0.367,13.991,0.009,31.474c0.282,15.79,7.99,25.848,12.031,30.264c1.41,1.504,3.008,1.881,4.699,1.129
	c1.222-0.563,1.41-2.727,0.188-4.795c-1.222-2.066-8.083-10.338-8.459-26.222C8.093,16.905,17.585,7.13,19.277,5.814
	c2.162-1.692,3.947-1.88,4.981-1.504c1.692,0.658,2.82,2.444,1.222,4.981c-1.598,2.538-9.493,9.963-9.493,22.276
	c0,13.347,5.075,18.611,7.895,22.183c1.316,1.691,3.29,2.537,4.981,1.599c1.598-0.847,1.034-2.914-0.094-4.604
	c-4.981-7.428-5.452-11.75-5.357-18.988c0.094-8.459,4.981-15.039,6.673-17.294c1.41-1.88,3.102-2.162,4.417-1.598
	c1.316,0.658,1.598,2.538,0.376,4.417c-1.41,2.255-5.076,8.365-5.169,14.192c-0.094,5.45,2.443,11.842,6.016,15.603
	c0.751,0.754,2.82,2.067,4.229,1.223c1.316-0.752,1.316-2.631,0.376-4.041c-3.102-4.418-4.136-6.861-4.23-12.313
	C36.008,30.158,36.854,25.834,39.11,21.604L39.11,21.604z"/>
<path id="path28" fill="#FAC32B" d="M80.654,39.181c-3.478,0-6.204-2.914-6.204-6.579c0-3.666,2.82-6.58,6.204-6.58
	c3.384,0,6.204,2.914,6.204,6.58C86.857,36.267,84.038,39.181,80.654,39.181L80.654,39.181z M81.782,20.195L81.782,20.195
	c-2.632,0-5.076,1.128-7.049,2.914V10.42c0-1.786-1.504-3.29-3.29-3.29c-1.786,0-3.29,1.504-3.29,3.29c0,0,0,8.083,0,10.997
	c0,2.538,1.222,3.102,2.068,6.204c0.376,1.41,0.564,2.914,0.564,4.512c0,2.255-0.376,4.511-1.222,6.391
	c-0.47,1.222-1.316,2.067-1.316,3.103c0,1.6,1.503,2.914,3.195,2.914c1.598,0,2.82-1.129,3.196-2.537
	c1.88,1.879,4.418,2.912,7.049,2.912c6.017,0,10.903-5.545,10.903-12.407C92.686,25.74,87.797,20.195,81.782,20.195L81.782,20.195z"
	/>
<path id="path30" fill="#FAC32B" d="M114.866,20.571c-1.783,0-3.289,1.504-3.289,3.29v7.05v2.82c0,0,0,1.315-0.188,1.88
	c-0.375,1.314-1.597,3.571-4.888,3.571c-4.604,0-5.076-4.418-5.076-8.177v-7.049c0-1.786-1.409-3.29-3.289-3.29
	c-1.881,0-3.29,1.504-3.29,3.29v7.049v4.136c0,0,0,1.69,0.188,2.351c0.469,1.973,2.067,6.391,7.896,7.705
	c0,0,5.354,0.94,8.553-3.383v0.188c0,1.785,1.504,3.289,3.289,3.289c1.787,0,3.289-1.504,3.289-3.289v-6.956V34.67v-3.76v-0.376
	v-6.768C118.154,21.98,116.652,20.571,114.866,20.571L114.866,20.571z"/>
<path id="path32" fill="#FAC32B" d="M136.297,25.834c3.289,1.222,4.137-0.282,4.416-0.846c0.471-1.128-0.188-2.726-2.16-3.572
	c-2.727-1.127-7.803-2.35-12.408,0c-4.039,2.162-4.135,5.64-3.006,8.084c1.033,2.255,2.535,2.725,4.416,3.571
	c1.316,0.563,2.35,1.033,4.043,1.785c2.443,1.128,4.793,1.786,3.76,3.666c-0.752,1.41-4.229,1.504-6.203,0.94
	c-0.938-0.282-2.161-0.848-3.571-1.41s-2.819-0.848-3.854,1.033c0,0-0.655,1.223,0.095,2.442c0.282,0.376,0.847,0.847,1.601,1.313
	c2.16,1.316,6.014,2.068,9.115,1.977c6.768-0.281,9.213-4.322,9.021-8.271c-0.187-3.103-2.726-4.793-7.049-6.205
	c0,0-2.632-1.128-4.322-1.691c-0.939-0.376-1.881-1.222-1.41-2.35C129.247,24.519,133.193,24.706,136.297,25.834L136.297,25.834
	L136.297,25.834z"/>
<path id="path34" fill="#FAC32B" d="M158.667,25.834c3.291,1.222,4.135-0.282,4.418-0.846c0.47-1.128-0.188-2.726-2.162-3.572
	c-2.726-1.127-7.801-2.35-12.405,0c-4.043,2.162-4.138,5.64-3.009,8.084c1.033,2.255,2.537,2.725,4.418,3.571
	c1.314,0.563,2.351,1.033,4.041,1.785c2.443,1.128,4.794,1.786,3.761,3.666c-0.752,1.41-4.229,1.504-6.205,0.94
	c-0.938-0.282-2.16-0.848-3.568-1.41c-1.41-0.563-2.82-0.848-3.854,1.033c0,0-0.66,1.223,0.094,2.442
	c0.281,0.376,0.847,0.847,1.597,1.313c2.164,1.316,6.019,2.068,9.119,1.977c6.769-0.281,9.211-4.322,9.022-8.271
	c-0.188-3.103-2.729-4.793-7.051-6.205c0,0-2.633-1.128-4.322-1.691c-0.938-0.376-1.881-1.222-1.41-2.35
	C151.618,24.519,155.564,24.706,158.667,25.834L158.667,25.834L158.667,25.834z"/>
<path id="path36" fill="#FFFFFF" d="M42.178,56.152c0-5.307,3.87-8.929,8.732-8.929c2.729,0,4.861,1.239,6.299,3.075l-1.24,0.793
	c-1.091-1.487-2.977-2.529-5.059-2.529c-4.019,0-7.193,3.076-7.193,7.59c0,4.465,3.175,7.59,7.193,7.59
	c2.083,0,3.968-0.992,5.059-2.529l1.291,0.793c-1.539,1.889-3.572,3.076-6.301,3.076C45.998,65.033,42.178,61.412,42.178,56.152
	L42.178,56.152L42.178,56.152z"/>
<path id="path38" fill="#FFFFFF" d="M69.314,58.484c0-2.779-1.638-5.309-4.564-5.309c-2.877,0-4.564,2.58-4.564,5.309
	c0,2.777,1.638,5.357,4.564,5.357S69.314,61.262,69.314,58.484L69.314,58.484z M58.796,58.484L58.796,58.484
	c0-3.67,2.332-6.548,5.953-6.548c3.72,0,6.053,2.878,6.053,6.548c0,3.672-2.333,6.549-6.053,6.549
	C61.128,65.033,58.796,62.105,58.796,58.484L58.796,58.484z"/>
<path id="path40" fill="#FFFFFF" d="M82.063,64.734V56.3c0-2.43-1.24-3.125-3.025-3.125c-1.589,0-3.275,0.992-4.069,2.132v9.426
	H73.63v-12.5h1.339v1.886c0.893-1.093,2.679-2.184,4.514-2.184c2.532,0,3.919,1.24,3.919,4.068v8.729L82.063,64.734L82.063,64.734z"
	/>
<path id="path42" fill="#FFFFFF" d="M85.833,63.048l0.793-0.991c0.793,0.991,2.281,1.836,4.019,1.836
	c2.084,0,3.323-1.093,3.323-2.531c0-3.422-7.887-1.487-7.887-5.952c0-1.935,1.637-3.473,4.465-3.473
	c2.134,0,3.572,0.843,4.465,1.836l-0.743,0.941c-0.746-0.991-2.084-1.637-3.722-1.637c-1.937,0-3.127,0.99-3.127,2.281
	c0,3.125,7.89,1.24,7.89,6.055c0,2.031-1.537,3.67-4.664,3.67C88.661,65.033,87.124,64.438,85.833,63.048L85.833,63.048
	L85.833,63.048z"/>
<path id="path44" fill="#FFFFFF" d="M98.434,62.354v-8.929H96.35v-1.19h2.084v-3.423h1.389v3.423h2.531v1.19h-2.531v8.681
	c0,0.992,0.396,1.688,1.291,1.688c0.595,0,1.093-0.299,1.39-0.596l0.496,1.041c-0.496,0.445-1.09,0.795-2.133,0.795
	C99.227,65.033,98.434,64.039,98.434,62.354L98.434,62.354z"/>
<path id="path46" fill="#FFFFFF" d="M104.635,64.734v-12.5h1.34v2.133c1.041-1.39,2.479-2.431,4.215-2.431v1.489
	c-0.246-0.051-0.396-0.051-0.692-0.051c-1.24,0-2.978,1.142-3.521,2.231v9.127L104.635,64.734L104.635,64.734z"/>
<path id="path48" fill="#FFFFFF" d="M120.657,64.734v-1.836c-0.992,1.141-2.679,2.135-4.515,2.135c-2.531,0-3.92-1.191-3.92-4.02
	v-8.78h1.34v8.483c0,2.43,1.24,3.125,3.025,3.125c1.588,0,3.227-0.943,4.068-2.084v-9.524h1.34v12.5L120.657,64.734L120.657,64.734
	L120.657,64.734z"/>
<path id="path50" fill="#FFFFFF" d="M128.396,68.852l0.443-0.845c0.646,0.498,1.342,0.746,2.035,0.746
	c0.895,0,1.688-0.446,1.688-1.144c0-0.646-0.348-1.041-1.041-1.041c-0.396,0-0.795,0.197-1.043,0.447l-0.692-0.396l0.545-1.539
	c-3.373-0.297-5.506-3.076-5.506-6.547c0-3.623,2.381-6.55,6.053-6.55c2.183,0,3.422,0.845,4.414,2.136l-0.94,0.842
	c-0.896-1.239-2.035-1.736-3.425-1.736c-2.928,0-4.713,2.333-4.713,5.311c0,3.024,1.785,5.356,4.713,5.356
	c1.39,0,2.529-0.496,3.425-1.735l0.94,0.842c-0.94,1.239-2.084,2.035-4.019,2.135l-0.396,1.091c0.248-0.197,0.645-0.298,0.939-0.298
	c0.992,0,1.688,0.695,1.688,1.687c0,1.191-1.141,2.035-2.627,2.035C129.885,69.598,128.893,69.25,128.396,68.852L128.396,68.852z"/>
<path id="path52" fill="#FFFFFF" d="M145.609,62.305v-2.729c-0.895-1.141-2.28-1.736-3.77-1.736c-2.033,0-3.426,1.342-3.426,3.125
	c0,1.736,1.393,3.074,3.426,3.074C143.329,63.99,144.717,63.445,145.609,62.305L145.609,62.305z M140.749,47.769L140.749,47.769
	c-0.793,0-1.39,0.744-1.39,2.479h-0.895c0-1.934,0.846-3.472,2.383-3.472c1.935,0,1.885,2.629,3.225,2.629
	c0.794,0,1.39-0.743,1.39-2.479h0.894c0,1.937-0.844,3.474-2.431,3.474C142.04,50.398,142.088,47.769,140.749,47.769L140.749,47.769
	z M145.609,64.734L145.609,64.734v-1.488c-1.092,1.24-2.528,1.787-4.268,1.787c-2.133,0-4.363-1.488-4.363-4.168
	c0-2.729,2.183-4.117,4.363-4.117c1.738,0,3.176,0.545,4.268,1.787v-2.531c0-1.883-1.487-2.877-3.321-2.877
	c-1.59,0-2.779,0.545-3.92,1.836l-0.744-0.941c1.289-1.389,2.729-2.083,4.813-2.083c2.528,0,4.563,1.24,4.563,4.019v8.779
	L145.609,64.734L145.609,64.734L145.609,64.734z"/>
<path id="path54" fill="#FFFFFF" d="M160.342,58.484c0-2.779-1.637-5.309-4.563-5.309c-2.879,0-4.564,2.58-4.564,5.309
	c0,2.777,1.639,5.357,4.564,5.357C158.756,63.841,160.342,61.262,160.342,58.484L160.342,58.484z M149.827,58.484L149.827,58.484
	c0-3.67,2.33-6.548,5.952-6.548c3.722,0,6.052,2.878,6.052,6.548c0,3.672-2.33,6.549-6.052,6.549
	C152.157,65.033,149.827,62.105,149.827,58.484L149.827,58.484z"/>
</svg>
